<svg xmlns="http://www.w3.org/2000/svg" viewBox="0 0 64 64"><rect width="26" height="5" x="8" y="51" fill="#dbdbdb"/><path fill="#ebebeb" d="M6,8H48a2,2,0,0,1,2,2V52a0,0,0,0,1,0,0H4a0,0,0,0,1,0,0V10A2,2,0,0,1,6,8Z"/><path fill="#e06661" d="M6,8H48a2,2,0,0,1,2,2v6H4V10A2,2,0,0,1,6,8Z"/><circle cx="12" cy="24" r="2" fill="#cbcbcb"/><circle cx="22" cy="24" r="2" fill="#cbcbcb"/><circle cx="32" cy="24" r="2" fill="#cbcbcb"/><circle cx="12" cy="32" r="2" fill="#cbcbcb"/><circle cx="22" cy="32" r="2" fill="#f9adb1"/><circle cx="12" cy="40" r="2" fill="#cbcbcb"/><circle cx="22" cy="40" r="2" fill="#cbcbcb"/><circle cx="44" cy="43" r="16" fill="#5d9aa4"/><circle cx="44" cy="43" r="12" fill="#f9f9f9"/><path fill="#fbb540" d="M44,45a.873.873,0,0,1-.144-.011,1,1,0,0,1-.688-.434l-2-3a1,1,0,0,1,1.664-1.11l1.383,2.075,5.145-4.289a1,1,0,0,1,1.28,1.538l-6,5A1,1,0,0,1,44,45Z"/><path fill="#dbdbdb" d="M44 51a1 1 0 0 0-1 1v2.95c.331.027.662.05 1 .05s.669-.023 1-.05V52A1 1 0 0 0 44 51zM44 31c-.338 0-.669.023-1 .05V34a1 1 0 0 0 2 0V31.05C44.669 31.023 44.338 31 44 31z"/><path fill="#c3c3c3" d="M12 5h0a2 2 0 0 1 2 2v4a0 0 0 0 1 0 0H10a0 0 0 0 1 0 0V7A2 2 0 0 1 12 5zM22 5h0a2 2 0 0 1 2 2v4a0 0 0 0 1 0 0H20a0 0 0 0 1 0 0V7a2 2 0 0 1 2-2zM32 5h0a2 2 0 0 1 2 2v4a0 0 0 0 1 0 0H30a0 0 0 0 1 0 0V7A2 2 0 0 1 32 5zM42 5h0a2 2 0 0 1 2 2v4a0 0 0 0 1 0 0H40a0 0 0 0 1 0 0V7A2 2 0 0 1 42 5z"/><path fill="#dbdbdb" d="M35 45a1 1 0 0 0 0-2H32a11.986 11.986 0 0 0 .18 2zM52 44a1 1 0 0 0 1 1h2.82A11.986 11.986 0 0 0 56 43H53A1 1 0 0 0 52 44z"/></svg>