<svg xmlns="http://www.w3.org/2000/svg" viewBox="0 0 64 64"><g data-name="23 Time date"><path fill="#bcb8b8" d="M61.966,45.633,54.981,9.809A1,1,0,0,0,54,9H47a1,1,0,0,0-.982,1.186l7,37A1,1,0,0,0,54,48h6A2.023,2.023,0,0,0,61.966,45.633Z"/><path fill="#eee" d="M53,19H2V48a2.006,2.006,0,0,0,2,2H53a2.006,2.006,0,0,0,2-2V19Z"/><path fill="#ffcf4d" d="M61.275 37.7L59.7 36.132a1.884 1.884 0 0 0-2.663-.009l-2.021 2.02 4.236 4.433 2.034-2.044A2.024 2.024 0 0 0 61.275 37.7zM44.987 38.143l-2.021-2.02a1.87 1.87 0 0 0-2.652 0L38.726 37.7a2.025 2.025 0 0 0-.009 2.83l2.034 2.044z"/><path fill="#3abeff" d="M51,36.052V34a1,1,0,0,0-2,0v2.052A11.163,11.163,0,0,0,39,47a11,11,0,0,0,22,0A11.163,11.163,0,0,0,51,36.052Z"/><path fill="#ff3c38" d="M53,8H4a2.006,2.006,0,0,0-2,2V21H55V10A2.006,2.006,0,0,0,53,8Z"/><path fill="#e52828" d="M28.5 11c-4.513 0-4.513 7 0 7S33.013 11 28.5 11zM42.5 11c-4.513 0-4.513 7 0 7S47.013 11 42.5 11zM14.5 11c-4.513 0-4.513 7 0 7S19.013 11 14.5 11z"/><rect width="49" height="9" x="4" y="10" fill="none"/><rect width="5" height="9" x="26" y="6" fill="#bcb8b8" rx="2" ry="2"/><rect width="5" height="9" x="40" y="6" fill="#bcb8b8" rx="2" ry="2"/><rect width="5" height="9" x="12" y="6" fill="#bcb8b8" rx="2" ry="2"/><rect width="7" height="7" x="7" y="23" fill="#3abeff" rx="2" ry="2"/><rect width="7" height="7" x="7" y="31" fill="#3abeff" rx="2" ry="2"/><rect width="7" height="7" x="7" y="39" fill="#3abeff" rx="2" ry="2"/><rect width="7" height="7" x="17" y="23" fill="#3abeff" rx="2" ry="2"/><rect width="7" height="7" x="17" y="31" fill="#3abeff" rx="2" ry="2"/><rect width="7" height="7" x="17" y="39" fill="#3abeff" rx="2" ry="2"/><rect width="7" height="7" x="27" y="23" fill="#3abeff" rx="2" ry="2"/><rect width="7" height="7" x="27" y="31" fill="#3abeff" rx="2" ry="2"/><rect width="7" height="7" x="37" y="23" fill="#3abeff" rx="2" ry="2"/><rect width="7" height="7" x="27" y="39" fill="#3abeff" rx="2" ry="2"/><rect width="8" height="5" x="46" y="30" fill="#ffcf4d" rx="2" ry="2"/></g><path d="M12,23H9a2.006,2.006,0,0,0-2,2v3a2.006,2.006,0,0,0,2,2h3a2.006,2.006,0,0,0,2-2V25A2.006,2.006,0,0,0,12,23Zm0,5H9V25h3Zm0,3H9a2.006,2.006,0,0,0-2,2v3a2.006,2.006,0,0,0,2,2h3a2.006,2.006,0,0,0,2-2V33A2.006,2.006,0,0,0,12,31Zm0,5H9V33h3Zm0,3H9a2.006,2.006,0,0,0-2,2v3a2.006,2.006,0,0,0,2,2h3a2.006,2.006,0,0,0,2-2V41A2.006,2.006,0,0,0,12,39Zm0,5H9V41h3ZM22,23H19a2.006,2.006,0,0,0-2,2v3a2.006,2.006,0,0,0,2,2h3a2.006,2.006,0,0,0,2-2V25A2.006,2.006,0,0,0,22,23Zm0,5H19V25h3Zm0,3H19a2.006,2.006,0,0,0-2,2v3a2.006,2.006,0,0,0,2,2h3a2.006,2.006,0,0,0,2-2V33A2.006,2.006,0,0,0,22,31Zm0,5H19V33h3Zm0,3H19a2.006,2.006,0,0,0-2,2v3a2.006,2.006,0,0,0,2,2h3a2.006,2.006,0,0,0,2-2V41A2.006,2.006,0,0,0,22,39Zm0,5H19V41h3ZM32,23H29a2.006,2.006,0,0,0-2,2v3a2.006,2.006,0,0,0,2,2h3a2.006,2.006,0,0,0,2-2V25A2.006,2.006,0,0,0,32,23Zm0,5H29V25h3Zm0,3H29a2.006,2.006,0,0,0-2,2v3a2.006,2.006,0,0,0,2,2h3a2.006,2.006,0,0,0,2-2V33A2.006,2.006,0,0,0,32,31Zm0,5H29V33h3Zm10-6a2.006,2.006,0,0,0,2-2V25a2.006,2.006,0,0,0-2-2H39a2.006,2.006,0,0,0-2,2v3a2.006,2.006,0,0,0,2,2Zm-3-5h3v3H39ZM32,39H29a2.006,2.006,0,0,0-2,2v3a2.006,2.006,0,0,0,2,2h3a2.006,2.006,0,0,0,2-2V41A2.006,2.006,0,0,0,32,39Zm0,5H29V41h3Zm29.97,1.63-.95-4.84a2.1,2.1,0,0,0,.26-3.09l-1.06-1.06L54.99,9.88l-.01-.07A2,2,0,0,0,53,8H45a2.006,2.006,0,0,0-2-2H42a2.006,2.006,0,0,0-2,2H31a2.006,2.006,0,0,0-2-2H28a2.006,2.006,0,0,0-2,2H17a2.006,2.006,0,0,0-2-2H14a2.006,2.006,0,0,0-2,2H4a2.006,2.006,0,0,0-2,2V48a2.006,2.006,0,0,0,2,2H39.42a11,11,0,0,0,21.55-2.26A2.055,2.055,0,0,0,61.97,45.63Zm-4.76-6.88,1.12-1.15q.764.761,1.53,1.52c-.393.4-.784.8-1.18,1.19A9.469,9.469,0,0,0,57.21,38.75ZM55,20.34l2.98,15.28a1.8,1.8,0,0,0-.95.5l-1.46,1.46a4.677,4.677,0,0,0-.57-.33ZM48,33V32h4v1Zm3,2a3.856,3.856,0,0,0,2-.27v1.7a10.387,10.387,0,0,0-2-.38ZM42,8h1v5H42Zm0,7a4.088,4.088,0,0,0,1.93-.23,1.45,1.45,0,0,1-2.86,0A1.941,1.941,0,0,0,42,15ZM28,8h1v5H28Zm0,7a4.088,4.088,0,0,0,1.93-.23,1.45,1.45,0,0,1-2.86,0A1.941,1.941,0,0,0,28,15ZM14,8h1v5H14Zm0,7a4.057,4.057,0,0,0,1.93-.23,1.45,1.45,0,0,1-2.86,0A1.941,1.941,0,0,0,14,15ZM4,10h8v2.05C10.26,14.01,11.09,18,14.5,18s4.24-3.99,2.5-5.95V10h9v2.05C24.26,14.01,25.09,18,28.5,18s4.24-3.99,2.5-5.95V10h9v2.05C38.26,14.01,39.09,18,42.5,18s4.24-3.99,2.5-5.95V10h8v9H4ZM4,48V21H53v9.27A2,2,0,0,0,52,30H48a2.006,2.006,0,0,0-2,2v1a2.006,2.006,0,0,0,2,2h1v1.05a10.6,10.6,0,0,0-4.57,1.53l-1.46-1.46a1.88,1.88,0,0,0-2.66,0L38.73,37.7a2.028,2.028,0,0,0-.01,2.83l1.5,1.52A10.785,10.785,0,0,0,39.05,48Zm37.32-7.69-1.19-1.19,1.51-1.5,1.14,1.14A10.682,10.682,0,0,0,41.32,40.31ZM51,55.94V54.692a1,1,0,0,0-2,0V55.94A9.069,9.069,0,0,1,41.06,48h1.25a1,1,0,0,0,0-2H41.06a9,9,0,0,1,17.88,0H57.69a1,1,0,0,0,0,2h1.25A9.013,9.013,0,0,1,51,55.94ZM54,48H50a1,1,0,0,1-1-1V40a1,1,0,0,1,2,0v6h3A1,1,0,0,1,54,48Z" data-name="Layer 32"/></svg>