<svg xmlns="http://www.w3.org/2000/svg" data-name="Layer 1" viewBox="0 0 168 168"><path fill="#2d4356" d="M69.5 41.45418a2.0001 2.0001 0 0 0 2-2v-6a2 2 0 0 0-4 0v6A2.0001 2.0001 0 0 0 69.5 41.45418zM67.5 107.45418v6a2 2 0 0 0 4 0v-6a2 2 0 1 0-4 0zM35.5 71.45418h-6a2 2 0 0 0 0 4h6a2 2 0 0 0 0-4z"/><path fill="#0bceb2" d="M99.19824 43.75594a1.99927 1.99927 0 0 0-2.82812 0l-4.24219 4.24219a1.99979 1.99979 0 1 0 2.82813 2.82813l4.24219-4.24219A1.99927 1.99927 0 0 0 99.19824 43.75594zM39.80176 103.15242a1.99927 1.99927 0 0 0 2.82813 0l4.24219-4.24219a1.99979 1.99979 0 0 0-2.82812-2.82812l-4.24219 4.24219A1.99927 1.99927 0 0 0 39.80176 103.15242zM44.04395 50.82625a1.99979 1.99979 0 0 0 2.82813-2.82812l-4.24219-4.24219a1.99979 1.99979 0 0 0-2.82812 2.82813zM76.5 73.45418a7.01057 7.01057 0 0 0-5-6.70514V50.95418a2 2 0 0 0-4 0V66.749a7.02594 7.02594 0 0 0-4.70514 4.70514H46.25a2 2 0 0 0 0 4H62.79486a6.99824 6.99824 0 0 0 13.70514-2zm-7 3a3 3 0 1 1 3-3A3.00328 3.00328 0 0 1 69.5 76.45418zM92.12793 96.08211a1.99927 1.99927 0 0 0 0 2.82813l4.24219 4.24219A1.99042 1.99042 0 0 0 97 103.57515V98.3409c0-.069.00934-.13562.01056-.20428l-2.0545-2.0545A1.99927 1.99927 0 0 0 92.12793 96.08211z"/><path fill="#2d4356" d="M103.5,71.45418a2,2,0,0,0,0,4h3.75336a18.00212,18.00212,0,0,1-.25336-3c0-.33752.03223-.667.05066-1Z"/><path fill="#2d4356" d="M70,123.45418a49.68774,49.68774,0,0,0,27-7.9502v-4.81677a45.99507,45.99507,0,1,1,16.5318-52.09467,18.0472,18.0472,0,0,1,3.45612-2.23315A50.00042,50.00042,0,1,0,70,123.45418Z"/><path fill="#0bceb2" d="M111,72.45418a14,14,0,1,0,14-14A14.01588,14.01588,0,0,0,111,72.45418Zm24,0a10,10,0,1,1-10-10A10,10,0,0,1,135,72.45418Z"/><circle cx="2" cy="149.454" r="2" fill="#2d4356"/><path fill="#2d4356" d="M11,147.45418H8a2,2,0,0,0,0,4h3a2,2,0,0,0,0-4Z"/><path fill="#0bceb2" d="M118.15387 155.45418h-8.30774a2.00641 2.00641 0 0 0 0 4h8.30774a2.00641 2.00641 0 0 0 0-4zM58.15387 155.45418H49.84613a2.00641 2.00641 0 0 0 0 4h8.30774a2.00641 2.00641 0 0 0 0-4zM104 155.45418H64a2 2 0 0 0 0 4H79.94v2H72a2 2 0 0 0 0 4H97a2 2 0 0 0 0-4H88.06v-2H104a2 2 0 0 0 0-4z"/><circle cx="2" cy="149.454" r="2" fill="#2d4356"/><path fill="#2d4356" d="M11,147.45418H8a2,2,0,0,0,0,4h3a2,2,0,0,0,0-4Z"/><path fill="#0bceb2" d="M118.15387 155.45418h-8.30774a2.00641 2.00641 0 0 0 0 4h8.30774a2.00641 2.00641 0 0 0 0-4zM58.15387 155.45418H49.84613a2.00641 2.00641 0 0 0 0 4h8.30774a2.00641 2.00641 0 0 0 0-4zM104 155.45418H64a2 2 0 0 0 0 4H79.94v2H72a2 2 0 0 0 0 4H97a2 2 0 0 0 0-4H88.06v-2H104a2 2 0 0 0 0-4z"/><path fill="#2d4356" d="M160,147.45418h-3a2,2,0,0,0,0,4h3a2,2,0,0,0,0-4Z"/><circle cx="166" cy="149.454" r="2" fill="#2d4356"/><path fill="#2d4356" d="M150.72,147.45418H138v-11h5a6.00476,6.00476,0,0,0,6-6v-32.11a8.02637,8.02637,0,0,0-8.14-7.89H109.14a8.02637,8.02637,0,0,0-8.14,7.89v32.11a6.00476,6.00476,0,0,0,6,6h5v11H17.28a2.0172,2.0172,0,1,0,0,4H150.72a2.0172,2.0172,0,1,0,0-4Zm-14.72-22a2.00587,2.00587,0,0,0-2,2v20h-7v-14.21a2,2,0,0,0-4,0v14.21h-7v-20a2,2,0,1,0-4,0v5h-5a2.00591,2.00591,0,0,1-2-2v-32.11a4.02388,4.02388,0,0,1,4.14-3.89h31.72a4.02388,4.02388,0,0,1,4.14,3.89v32.11a2.00591,2.00591,0,0,1-2,2h-5v-5A2.00587,2.00587,0,0,0,136,125.45418Z"/><path fill="#0bceb2" d="M130.93,115.22414l-3.12,3.08a4.008,4.008,0,0,1-5.62,0l-3.12-3.08a3.99552,3.99552,0,0,1-1.14-3.53l3.01-17.24H125l-3.12,17.92,3.12,3.08,3.12-3.08-3.12-17.92h4.06l3.01,17.24A3.99552,3.99552,0,0,1,130.93,115.22414Z"/><path fill="#2d4356" d="M125.48436 37.77253a3 3 0 1 0-.80272 4.166A3.00344 3.00344 0 0 0 125.48436 37.77253zM121.75782 40.295a1.5 1.5 0 1 1 2.083.40136A1.50148 1.50148 0 0 1 121.75782 40.295zM155 55.36255a2 2 0 1 0 2 2A2.00229 2.00229 0 0 0 155 55.36255zm0 3a1 1 0 1 1 1-1A1.001 1.001 0 0 1 155 58.36255zM111 10.12085a2 2 0 1 0 2 2A2.00229 2.00229 0 0 0 111 10.12085zm0 3a1 1 0 1 1 1-1A1.001 1.001 0 0 1 111 13.12085zM152.58056 2.86255a2 2 0 1 0 2 2A2.00229 2.00229 0 0 0 152.58056 2.86255zm0 3a1 1 0 1 1 1-1A1.001 1.001 0 0 1 152.58056 5.86255zM29.5 29.45418a2 2 0 1 0-2 2A2.00229 2.00229 0 0 0 29.5 29.45418zm-3 0a1 1 0 1 1 1 1A1.001 1.001 0 0 1 26.5 29.45418z"/><polygon fill="#0bceb2" points="10.888 68.465 12.375 66.51 11.436 65.978 10.481 68.168 10.45 68.168 9.48 65.993 8.525 66.541 9.996 68.45 9.996 68.481 7.695 68.184 7.695 69.248 10.011 68.951 10.011 68.982 8.525 70.89 9.416 71.454 10.434 69.248 10.465 69.248 11.404 71.438 12.39 70.875 10.888 68.997 10.888 68.966 13.25 69.248 13.25 68.184 10.888 68.497 10.888 68.465"/><polygon fill="#0bceb2" points="3.734 6.593 2.878 7.692 3.392 8.016 3.978 6.745 3.996 6.745 4.536 8.007 5.104 7.683 4.239 6.601 4.239 6.583 5.599 6.745 5.599 6.133 4.239 6.313 4.239 6.295 5.095 5.169 4.555 4.863 4.005 6.124 3.987 6.124 3.429 4.871 2.878 5.187 3.726 6.286 3.726 6.304 2.401 6.133 2.401 6.745 3.734 6.575 3.734 6.593"/><polygon fill="#0bceb2" points="163.029 25.57 163.029 24.526 160.712 24.833 160.712 24.802 162.17 22.884 161.249 22.363 160.313 24.511 160.282 24.511 159.331 22.378 158.394 22.915 159.837 24.787 159.837 24.818 157.581 24.526 157.581 25.57 159.852 25.278 159.852 25.309 158.394 27.181 159.269 27.734 160.267 25.57 160.297 25.57 161.218 27.718 162.185 27.166 160.712 25.324 160.712 25.293 163.029 25.57"/><polygon fill="#0bceb2" points="58.377 4.65 59.634 2.996 58.84 2.546 58.033 4.399 58.006 4.399 57.185 2.559 56.377 3.022 57.622 4.638 57.622 4.664 55.675 4.412 55.675 5.312 57.635 5.061 57.635 5.088 56.377 6.702 57.132 7.179 57.993 5.312 58.019 5.312 58.813 7.166 59.647 6.689 58.377 5.1 58.377 5.074 60.375 5.312 60.375 4.412 58.377 4.677 58.377 4.65"/></svg>